<svg width="48" height="48" viewBox="0 0 48 48" fill="none" xmlns="http://www.w3.org/2000/svg">
<path d="M34 23C38.9706 23 43 18.9706 43 14C43 9.02944 38.9706 5 34 5C29.0294 5 25 9.02944 25 14C25 18.9706 29.0294 23 34 23Z" stroke="white" stroke-width="4" stroke-linecap="round" stroke-linejoin="round"/>
<path d="M12 32C15.866 32 19 28.866 19 25C19 21.134 15.866 18 12 18C8.13401 18 5 21.134 5 25C5 28.866 8.13401 32 12 32Z" stroke="white" stroke-width="4" stroke-linecap="round" stroke-linejoin="round"/>
<path d="M29 42C31.7614 42 34 39.7614 34 37C34 34.2386 31.7614 32 29 32C26.2386 32 24 34.2386 24 37C24 39.7614 26.2386 42 29 42Z" stroke="white" stroke-width="4" stroke-linecap="round" stroke-linejoin="round"/>
</svg>
