<svg xmlns="http://www.w3.org/2000/svg" viewBox="0 0 140.49 103.42"><defs><style>.cls-1{fill:#373c43;stroke:#373c43;stroke-miterlimit:10;stroke-width:0.25px;}.cls-2{fill:#71db47;}.cls-3{fill:#212121;}.cls-4{fill:#fff;}.cls-5{fill:#e9bdd5;}</style></defs><g id="Layer_2" data-name="Layer 2"><g id="OBJECTS"><path class="cls-1" d="M79.93,19.48l3.32,1.76a.45.45,0,0,1,.23.28.48.48,0,0,1,0,.37.47.47,0,0,1-.27.23.44.44,0,0,1-.37,0l-4.57-2.42A.47.47,0,0,1,78,19h0l0,0,0,0,0-.05a.38.38,0,0,1,.13-.09l.06,0,.14,0,4.85-.65L80,16.34a.44.44,0,0,1-.22-.28.48.48,0,0,1,0-.37.44.44,0,0,1,.12-.15.48.48,0,0,1,.16-.08.47.47,0,0,1,.17,0,.43.43,0,0,1,.18.06L85,17.93a.49.49,0,0,1,.21.22.49.49,0,0,1,0,.29.29.29,0,0,1,0,.09l0,0a.49.49,0,0,1-.23.22l0,0-.06,0Z"/><path class="cls-1" d="M88.05,12.44l-1.66,1.77.62,1.4a.43.43,0,0,1,0,.19A.57.57,0,0,1,87,16a.72.72,0,0,1-.11.15.36.36,0,0,1-.16.11.38.38,0,0,1-.36,0,.48.48,0,0,1-.25-.27l-2.21-5.18a.56.56,0,0,1,0-.28.55.55,0,0,1,.12-.24.44.44,0,0,1,.24-.13.42.42,0,0,1,.27,0l5.29,1.94a.51.51,0,0,1,.28.24.43.43,0,0,1,0,.35.69.69,0,0,1-.1.17.42.42,0,0,1-.15.11.48.48,0,0,1-.18,0,.63.63,0,0,1-.19,0ZM86,13.26l1.12-1.18-2-.75Z"/><path class="cls-1" d="M93.23,5.43a2,2,0,0,1,.22.52,1.73,1.73,0,0,1,0,.55,1.81,1.81,0,0,1-.4,1l2,1a.44.44,0,0,1,.15.12.38.38,0,0,1,.08.17.37.37,0,0,1,0,.18.32.32,0,0,1-.06.18.53.53,0,0,1-.12.14.48.48,0,0,1-.16.08.55.55,0,0,1-.18,0,.41.41,0,0,1-.18-.05L92.27,8.14l-.62.39,1.07,1.73a.47.47,0,0,1-.16.66.44.44,0,0,1-.35.06.47.47,0,0,1-.3-.21L89.18,6.35A.42.42,0,0,1,89.12,6a.47.47,0,0,1,.21-.29l1.37-.84a1.72,1.72,0,0,1,.68-.26,1.88,1.88,0,0,1,.71,0,1.76,1.76,0,0,1,.64.29A1.7,1.7,0,0,1,93.23,5.43Zm-3,.82.9,1.46,1-.59a.89.89,0,0,0,.26-.25.87.87,0,0,0,.14-.31.92.92,0,0,0,0-.33.88.88,0,0,0-.12-.32.92.92,0,0,0-.23-.25,1.2,1.2,0,0,0-.31-.13,1,1,0,0,0-.34,0,.91.91,0,0,0-.33.13Z"/><path class="cls-1" d="M97.55,4.05,98,7.48a.45.45,0,0,1-.09.36.41.41,0,0,1-.32.17.47.47,0,0,1-.35-.08.55.55,0,0,1-.19-.32l-.72-5.14a.49.49,0,0,1,.06-.29A.39.39,0,0,1,96.57,2a.46.46,0,0,1,.34-.1.48.48,0,0,1,.32.18L100,5.58l.48-4.41A.48.48,0,0,1,101,.75l0,0a.4.4,0,0,1,.21.09.44.44,0,0,1,.15.18l2,4.78a.45.45,0,0,1,0,.36.47.47,0,0,1-.26.26.5.5,0,0,1-.36,0,.44.44,0,0,1-.26-.26L101.2,3l-.42,3.8a.38.38,0,0,1-.11.24.51.51,0,0,1-.21.15.39.39,0,0,1-.28,0,.45.45,0,0,1-.25-.17Z"/><path class="cls-1" d="M106.82,5.76a.48.48,0,0,1-.46.49.42.42,0,0,1-.34-.12.43.43,0,0,1-.16-.32L105.6.62a.42.42,0,0,1,.12-.34.43.43,0,0,1,.33-.15.49.49,0,0,1,.35.11.46.46,0,0,1,.15.33Z"/><path class="cls-1" d="M111.3,2.17l-.6,3.71a.43.43,0,0,1-.19.31.47.47,0,0,1-.35.08.48.48,0,0,1-.32-.19.47.47,0,0,1-.08-.35l.82-5.12a.48.48,0,0,1,.19-.31.47.47,0,0,1,.35-.08h0s0,0,0,0l.07,0a.4.4,0,0,1,.12.1l0,0a.67.67,0,0,1,.06.12l2.19,4.38.59-3.73a.46.46,0,0,1,.2-.31.44.44,0,0,1,.36-.07.49.49,0,0,1,.17.06.38.38,0,0,1,.13.12.53.53,0,0,1,.08.17.37.37,0,0,1,0,.18l-.82,5.13a.4.4,0,0,1-.14.27.42.42,0,0,1-.26.12h-.14a.57.57,0,0,1-.28-.14l0,0,0,0Z"/><path class="cls-1" d="M122.71,7.47a2.64,2.64,0,0,1-.36-.65,1.71,1.71,0,0,1-.1-.67,1.58,1.58,0,0,1,.23-.66A1.64,1.64,0,0,1,123,5a1.83,1.83,0,0,1,.68-.23,2,2,0,0,1,.73,0,2.09,2.09,0,0,1,.71.29,2.51,2.51,0,0,1,.44.35,2.55,2.55,0,0,1,.34.41,1.82,1.82,0,0,1,.22.47,1.5,1.5,0,0,1,.07.51.32.32,0,0,1,0,.14.44.44,0,0,1-.08.11l-.11.08-.12,0h-.14l-.15-.05a.57.57,0,0,1-.13-.1.56.56,0,0,1-.1-.15,1.89,1.89,0,0,0-.1-.31,1.58,1.58,0,0,0-.13-.26,1,1,0,0,0-.2-.22,1.71,1.71,0,0,0-.28-.22,1.76,1.76,0,0,0-.37-.17,1,1,0,0,0-.38,0,.74.74,0,0,0-.33.09.64.64,0,0,0-.25.24.49.49,0,0,0-.09.36.76.76,0,0,0,.13.35,1.87,1.87,0,0,0,.29.37l.38.39a4.51,4.51,0,0,1,.44.54,2.09,2.09,0,0,1,.31.59,1.46,1.46,0,0,1,.08.62,1.42,1.42,0,0,1-.23.67,1.74,1.74,0,0,1-.54.54,1.81,1.81,0,0,1-.71.27,2.29,2.29,0,0,1-.78,0,2.37,2.37,0,0,1-.79-.33,2.53,2.53,0,0,1-.53-.44,2.36,2.36,0,0,1-.37-.54,2.19,2.19,0,0,1-.21-.57,1.78,1.78,0,0,1,0-.56.64.64,0,0,1,.06-.22.58.58,0,0,1,.12-.14.35.35,0,0,1,.16-.08l.17,0a.4.4,0,0,1,.3.15.78.78,0,0,1,.13.39,1.34,1.34,0,0,0,.19.7,1.66,1.66,0,0,0,.54.55,1.71,1.71,0,0,0,.39.17,1.1,1.1,0,0,0,.4,0,.78.78,0,0,0,.37-.09.75.75,0,0,0,.29-.27.55.55,0,0,0,.1-.36.82.82,0,0,0-.09-.34,1.72,1.72,0,0,0-.23-.32l-.29-.31A5.32,5.32,0,0,1,122.71,7.47Z"/><path class="cls-1" d="M129.07,14.26l-1.66-1.77L126,13a.32.32,0,0,1-.19,0,.41.41,0,0,1-.18-.05.36.36,0,0,1-.14-.11.62.62,0,0,1-.11-.17.45.45,0,0,1,0-.36.52.52,0,0,1,.29-.23l5.3-1.92a.54.54,0,0,1,.28,0,.51.51,0,0,1,.23.14.39.39,0,0,1,.12.24.42.42,0,0,1,0,.27L129.32,16a.45.45,0,0,1-.25.27.39.39,0,0,1-.35,0,.38.38,0,0,1-.16-.11.53.53,0,0,1-.11-.15.57.57,0,0,1,0-.18.46.46,0,0,1,0-.2Zm-.7-2.13,1.12,1.18.86-1.93Z"/><path class="cls-1" d="M134,17.4l-3.29,1.12a.41.41,0,0,1-.36,0,.48.48,0,0,1-.24-.28.49.49,0,0,1,0-.36.45.45,0,0,1,.28-.24L135.31,16a.39.39,0,0,1,.3,0,.47.47,0,0,1,.35.42.46.46,0,0,1-.11.35l-2.92,3.35,4.43-.36a.52.52,0,0,1,.34.12.47.47,0,0,1,.16.32v.06a.59.59,0,0,1-.05.22.55.55,0,0,1-.16.18l-4.3,2.91a.52.52,0,0,1-.36.07.47.47,0,0,1-.3-.21.51.51,0,0,1-.08-.36.46.46,0,0,1,.2-.3l2.86-1.92-3.82.29a.4.4,0,0,1-.26-.06.39.39,0,0,1-.18-.18.37.37,0,0,1-.07-.27.45.45,0,0,1,.11-.28Z"/><path class="cls-1" d="M135.69,29l-.43-2.39-1.5-.33a.34.34,0,0,1-.17-.08.53.53,0,0,1-.13-.13.64.64,0,0,1-.06-.18.67.67,0,0,1,0-.2.42.42,0,0,1,.21-.29.59.59,0,0,1,.37,0l5.48,1.31a.56.56,0,0,1,.25.14.46.46,0,0,1,.12.24.57.57,0,0,1,0,.26.46.46,0,0,1-.18.21l-4.71,3.1a.56.56,0,0,1-.35.09.41.41,0,0,1-.3-.19.48.48,0,0,1-.08-.18.54.54,0,0,1,0-.18.45.45,0,0,1,.07-.18.57.57,0,0,1,.13-.14Zm.58-2.16.29,1.6,1.77-1.15Z"/><path class="cls-1" d="M140.26,35.05a3.11,3.11,0,0,1-.55,1.53,3,3,0,0,1-.53.59,3.18,3.18,0,0,1-.67.43,3.08,3.08,0,0,1-.76.25,3.26,3.26,0,0,1-.83,0,3,3,0,0,1-.81-.19,3.37,3.37,0,0,1-.7-.38,2.44,2.44,0,0,1-.57-.54,3.13,3.13,0,0,1-.42-.67,3.27,3.27,0,0,1-.23-.77,3.34,3.34,0,0,1,0-.84l.1-1a.47.47,0,0,1,.16-.32.49.49,0,0,1,.35-.11l5.17.47a.43.43,0,0,1,.32.17.42.42,0,0,1,.11.34Zm-1,0,.06-.61-4.2-.37-.06.57a2.24,2.24,0,0,0,.09.86,2.19,2.19,0,0,0,.37.73,2,2,0,0,0,.62.51,2.07,2.07,0,0,0,.82.25,2.17,2.17,0,0,0,1.55-.49,2.15,2.15,0,0,0,.51-.64A2.24,2.24,0,0,0,139.3,35Z"/><path class="cls-1" d="M137.71,45.43a3.14,3.14,0,0,1-.57.58,3.62,3.62,0,0,1-.68.41,3.06,3.06,0,0,1-.77.22,3.14,3.14,0,0,1-.81,0,3,3,0,0,1-.81-.2,3.05,3.05,0,0,1-1-.67,3.15,3.15,0,0,1-.67-1,3.12,3.12,0,0,1-.26-1.17,3.16,3.16,0,0,1,.89-2.26,3.23,3.23,0,0,1,1-.67,3.11,3.11,0,0,1,1.17-.25,3.22,3.22,0,0,1,1.94.62,3.14,3.14,0,0,1,.58.57,2.62,2.62,0,0,1,.41.68,2.9,2.9,0,0,1,.23.76,3.63,3.63,0,0,1,0,.81,3.11,3.11,0,0,1-.61,1.54Zm-.34-1.93a2.17,2.17,0,0,0-.18-.8,2.24,2.24,0,0,0-.47-.68,2.07,2.07,0,0,0-.72-.46,2.29,2.29,0,0,0-.85-.16,2.17,2.17,0,0,0-.8.18,2.1,2.1,0,0,0-.68.46,2.23,2.23,0,0,0-.47.73,2.09,2.09,0,0,0-.15.85,2.16,2.16,0,0,0,.17.8,2.16,2.16,0,0,0,1.2,1.15,2.08,2.08,0,0,0,.84.15,2,2,0,0,0,.81-.18,1.94,1.94,0,0,0,.68-.47,2.15,2.15,0,0,0,.62-1.57Z"/><path class="cls-1" d="M134.57,50.25a.37.37,0,0,1,.18.08.53.53,0,0,1,.12.14.34.34,0,0,1,0,.17.41.41,0,0,1,0,.19.44.44,0,0,1-.22.29.45.45,0,0,1-.36.05L129.94,50l2.19,4a.49.49,0,0,1,.06.17.55.55,0,0,1,0,.18.35.35,0,0,1-.08.16.86.86,0,0,1-.14.13.64.64,0,0,1-.18.06.55.55,0,0,1-.18,0,.35.35,0,0,1-.16-.08.53.53,0,0,1-.12-.14l-2.72-4.92h0a.66.66,0,0,1-.06-.27.55.55,0,0,1,.1-.25l0,0,.07-.07h0l.13-.07a.42.42,0,0,1,.27,0Z"/><path class="cls-1" d="M124.29,55.58l1.9-1.51-.42-1.48a.43.43,0,0,1,0-.19.4.4,0,0,1,.07-.18.49.49,0,0,1,.12-.13.51.51,0,0,1,.18-.09.39.39,0,0,1,.35,0,.47.47,0,0,1,.21.3l1.46,5.45a.45.45,0,0,1,0,.28.48.48,0,0,1-.16.22.43.43,0,0,1-.24.1.46.46,0,0,1-.28-.06l-5-2.67a.46.46,0,0,1-.24-.27.39.39,0,0,1,0-.35.44.44,0,0,1,.12-.15.51.51,0,0,1,.16-.09.4.4,0,0,1,.19,0,.41.41,0,0,1,.18.05Zm2.18-.52-1.27,1,1.85,1Z"/><path class="cls-2" d="M62.41,43.59c-1.37,13.85-7.95,31.17-21.35,36h0C53.29,84.5,57,91.58,58.13,97.31h8.56c1.12-5.73,4.84-12.81,17.06-17.69h0C70.35,74.76,63.77,57.44,62.41,43.59Z"/><path class="cls-3" d="M61.29,103.42c-36.85,0-56.67-29.28-57.5-30.52L2,70.19l2-2.55C5,66.4,28.06,37.4,61.29,37.4c36.25,0,58.56,29.07,59.49,30.3l2,2.71-2,2.71C119.85,74.35,97.54,103.42,61.29,103.42ZM13.34,70.6c5.55,6.73,22.19,23.82,48,23.82,25.55,0,43.78-17.21,50-24-6.2-6.8-24.43-24-50-24C37.92,46.4,19.55,63.87,13.34,70.6Z"/><rect class="cls-4" x="110.2" y="63.17" width="12.02" height="12.03"/><path class="cls-3" d="M124.73,77.7h-17v-17h17Zm-12-5h7v-7h-7Z"/><rect class="cls-4" x="2.5" y="63.17" width="12.02" height="12.03"/><path class="cls-3" d="M17,77.7H0v-17H17Zm-12-5h7v-7H5Z"/><circle class="cls-3" cx="97.68" cy="35.8" r="6.42"/><circle class="cls-3" cx="27.13" cy="35.8" r="6.42"/><rect class="cls-3" x="26.65" y="31.3" width="71.51" height="9"/><rect class="cls-5" x="56.4" y="29.79" width="12.02" height="12.03"/><path class="cls-3" d="M70.92,44.31h-17v-17h17Zm-12-5h7v-7h-7Z"/></g></g></svg>